<svg width="21" height="14" viewBox="0 0 21 14" fill="none" xmlns="http://www.w3.org/2000/svg">
<path d="M20.2183 0H0V14H20.2183V0Z" fill="#000066"/>
<path d="M0 0V1.56524L17.9579 14H20.2183V12.4348L2.26041 4.66665e-05H0L0 0ZM20.2183 0V1.56519L2.26041 14H0V12.4348L17.9579 0H20.2183Z" fill="white"/>
<path d="M8.42431 0V14H11.794V0H8.42431ZM0 4.66665V9.3333H20.2183V4.66665H0Z" fill="white"/>
<path d="M0 5.59998V8.39997H20.2183V5.59998H0ZM9.09825 0V14H11.1201V0H9.09825Z" fill="#E34248"/>
<path d="M0 14L6.73944 9.3333H8.24638L1.50694 14H0H0ZM0 0L6.73944 4.66665H5.2325L0 1.04351V0L0 0ZM11.9719 4.66665L18.7114 0H20.2183L13.4789 4.66665H11.9719ZM20.2183 14L13.4789 9.3333H14.9858L20.2183 12.9565V14Z" fill="#E34248"/>
</svg>
