<svg width="478" height="360" viewBox="0 0 478 360" fill="none" xmlns="http://www.w3.org/2000/svg">
<path d="M201.297 107.219H197.363V307.856H201.297V107.219Z" stroke="#434D48" stroke-width="0.882381" stroke-miterlimit="10"/>
<path d="M224.901 107.219H220.967V307.856H224.901V107.219Z" stroke="#434D48" stroke-width="0.882381" stroke-miterlimit="10"/>
<path d="M220.966 122.956L201.296 111.154V115.088L217.692 124.924L201.3 134.759V138.693L217.692 148.527L201.3 158.363V162.296L217.692 172.132L201.3 181.967V185.901L217.692 195.736L201.3 205.571V209.504L217.692 219.341L201.3 229.176V233.11L217.692 242.944L201.3 252.78V256.713L217.692 266.549L201.3 276.384V280.318L217.692 290.154L201.3 299.989V303.922L220.97 292.12V288.186L204.579 278.351L220.97 268.516V264.581L204.579 254.746L220.97 244.911V240.978L204.579 231.142L220.97 221.307V217.373L204.579 207.538L220.966 197.703V193.77L204.575 183.935L220.966 174.1V170.165L204.575 160.33L220.966 150.495V146.561L204.575 136.726L220.966 126.891V122.956Z" stroke="#434D48" stroke-width="0.220595" stroke-miterlimit="10"/>
<path d="M236.703 307.856H185.561V311.79H236.703V307.856Z" stroke="#434D48" stroke-width="0.882381" stroke-miterlimit="10"/>
<path d="M240.637 311.79H181.626V355.065H240.637V311.79Z" stroke="#434D48" stroke-width="0.882381" stroke-miterlimit="10"/>
<path d="M244.571 355.065H177.692V359H244.571V355.065Z" stroke="#434D48" stroke-width="0.882381" stroke-miterlimit="10"/>
<path d="M193.428 305.889H189.494V307.856H193.428V305.889Z" stroke="#434D48" stroke-width="0.882381" stroke-miterlimit="10"/>
<path d="M232.769 305.889H228.835V307.856H232.769V305.889Z" stroke="#434D48" stroke-width="0.882381" stroke-miterlimit="10"/>
<path d="M181.626 339.329H240.637" stroke="#434D48" stroke-width="0.882381" stroke-miterlimit="10"/>
<path d="M181.626 343.263L240.637 351.132" stroke="#434D48" stroke-width="0.220595" stroke-miterlimit="10"/>
<path d="M240.637 343.263L181.626 351.132" stroke="#434D48" stroke-width="0.220595" stroke-miterlimit="10"/>
<path d="M220.967 124.924H201.297" stroke="#434D48" stroke-width="0.745612" stroke-miterlimit="10"/>
<path d="M220.967 160.329H201.297" stroke="#434D48" stroke-width="0.745612" stroke-miterlimit="10"/>
<path d="M220.967 172.132H201.297" stroke="#434D48" stroke-width="0.745612" stroke-miterlimit="10"/>
<path d="M220.967 183.933H201.297" stroke="#434D48" stroke-width="0.745612" stroke-miterlimit="10"/>
<path d="M220.967 195.736H201.297" stroke="#434D48" stroke-width="0.745612" stroke-miterlimit="10"/>
<path d="M220.967 219.34H201.297" stroke="#434D48" stroke-width="0.745612" stroke-miterlimit="10"/>
<path d="M220.967 231.142H201.297" stroke="#434D48" stroke-width="0.745612" stroke-miterlimit="10"/>
<path d="M220.967 242.944H201.297" stroke="#434D48" stroke-width="0.745612" stroke-miterlimit="10"/>
<path d="M220.967 254.746H201.297" stroke="#434D48" stroke-width="0.745612" stroke-miterlimit="10"/>
<path d="M220.967 266.548H201.297" stroke="#434D48" stroke-width="0.745612" stroke-miterlimit="10"/>
<path d="M220.967 278.35H201.297" stroke="#434D48" stroke-width="0.745612" stroke-miterlimit="10"/>
<path d="M220.967 290.152H201.297" stroke="#434D48" stroke-width="0.745612" stroke-miterlimit="10"/>
<path d="M220.967 301.955H201.297" stroke="#434D48" stroke-width="0.745612" stroke-miterlimit="10"/>
<path d="M220.967 303.922H201.297" stroke="#434D48" stroke-width="0.745612" stroke-miterlimit="10"/>
<path d="M220.967 207.538H201.297" stroke="#434D48" stroke-width="0.745612" stroke-miterlimit="10"/>
<path d="M220.967 113.121H201.297" stroke="#434D48" stroke-width="0.745612" stroke-miterlimit="10"/>
<path d="M220.967 111.154H201.297" stroke="#434D48" stroke-width="0.745612" stroke-miterlimit="10"/>
<path d="M220.967 136.725H201.297" stroke="#434D48" stroke-width="0.745612" stroke-miterlimit="10"/>
<path d="M201.297 148.527H220.967" stroke="#434D48" stroke-width="0.745612" stroke-miterlimit="10"/>
<path d="M232.769 103.284H189.495V107.219H232.769V103.284Z" stroke="#434D48" stroke-width="0.882381" stroke-miterlimit="10"/>
<path d="M232.769 60.0105H189.495V63.9447H232.769V60.0105Z" stroke="#434D48" stroke-width="0.882381" stroke-miterlimit="10"/>
<path d="M354.725 63.9421H315.384L309.483 60.0078H360.626L354.725 63.9421Z" stroke="#434D48" stroke-width="0.882381" stroke-miterlimit="10"/>
<path d="M240.637 99.3516H181.627V63.9458H248.506L240.637 99.3516Z" stroke="#434D48" stroke-width="0.882381" stroke-miterlimit="10"/>
<path d="M236.703 91.4828H213.099V67.8789H241.931L236.703 91.4828Z" stroke="#434D48" stroke-width="0.882381" stroke-miterlimit="10"/>
<path d="M209.164 67.8784H193.428V91.4831H209.164V67.8784Z" stroke="#434D48" stroke-width="0.882381" stroke-miterlimit="10"/>
<path d="M205.23 71.8125H197.363V87.5487H205.23V71.8125Z" stroke="#434D48" stroke-width="0.220595" stroke-miterlimit="10"/>
<path d="M181.626 95.4172H241.62" stroke="#434D48" stroke-width="0.882381" stroke-miterlimit="10"/>
<path d="M217.033 71.8125H236.703L233.182 87.5487H217.033V71.8125Z" stroke="#434D48" stroke-width="0.220595" stroke-miterlimit="10"/>
<path d="M228.835 99.3513H193.428V103.286H228.835V99.3513Z" stroke="#434D48" stroke-width="0.882381" stroke-miterlimit="10"/>
<path d="M193.428 99.3513L197.362 103.286" stroke="#434D48" stroke-width="0.220595" stroke-miterlimit="10"/>
<path d="M197.363 99.3513L201.297 103.286" stroke="#434D48" stroke-width="0.220595" stroke-miterlimit="10"/>
<path d="M201.297 99.3513L205.231 103.286" stroke="#434D48" stroke-width="0.220595" stroke-miterlimit="10"/>
<path d="M205.231 99.3513L209.165 103.286" stroke="#434D48" stroke-width="0.220595" stroke-miterlimit="10"/>
<path d="M209.165 99.3513L213.1 103.286" stroke="#434D48" stroke-width="0.220595" stroke-miterlimit="10"/>
<path d="M213.099 99.3513L217.033 103.286" stroke="#434D48" stroke-width="0.220595" stroke-miterlimit="10"/>
<path d="M217.033 99.3513L220.967 103.286" stroke="#434D48" stroke-width="0.220595" stroke-miterlimit="10"/>
<path d="M220.967 99.3513L224.901 103.286" stroke="#434D48" stroke-width="0.220595" stroke-miterlimit="10"/>
<path d="M224.901 99.3513L228.836 103.286" stroke="#434D48" stroke-width="0.220595" stroke-miterlimit="10"/>
<path d="M382.263 56.0764H79.3408V60.0107H382.263V56.0764Z" stroke="#434D48" stroke-width="0.882381" stroke-miterlimit="10"/>
<path d="M382.263 44.2739H79.3408V48.2082H382.263V44.2739Z" stroke="#434D48" stroke-width="0.882381" stroke-miterlimit="10"/>
<path d="M122.614 56.0764L134.416 48.2087H142.285L130.483 56.0764H122.614Z" stroke="#434D48" stroke-width="0.220595" stroke-miterlimit="10"/>
<path d="M161.956 56.0764L150.154 48.2087H142.285L154.087 56.0764H161.956Z" stroke="#434D48" stroke-width="0.220595" stroke-miterlimit="10"/>
<path d="M83.275 56.0764L95.0769 48.2087H102.945L91.1435 56.0764H83.275Z" stroke="#434D48" stroke-width="0.220595" stroke-miterlimit="10"/>
<path d="M122.616 56.0764L110.814 48.2087H102.946L114.747 56.0764H122.616Z" stroke="#434D48" stroke-width="0.220595" stroke-miterlimit="10"/>
<path d="M161.956 56.0764L173.758 48.2087H181.626L169.824 56.0764H161.956Z" stroke="#434D48" stroke-width="0.220595" stroke-miterlimit="10"/>
<path d="M201.297 56.0764L189.495 48.2087H181.626L193.428 56.0764H201.297Z" stroke="#434D48" stroke-width="0.220595" stroke-miterlimit="10"/>
<path d="M201.297 56.0764L213.099 48.2087H220.967L209.165 56.0764H201.297Z" stroke="#434D48" stroke-width="0.220595" stroke-miterlimit="10"/>
<path d="M240.638 56.0764L228.836 48.2087H220.971L232.773 56.0764H240.638Z" stroke="#434D48" stroke-width="0.220595" stroke-miterlimit="10"/>
<path d="M240.638 56.0764L252.44 48.2087H260.308L248.506 56.0764H240.638Z" stroke="#434D48" stroke-width="0.220595" stroke-miterlimit="10"/>
<path d="M279.978 56.0764L268.177 48.2087H260.308L272.11 56.0764H279.978Z" stroke="#434D48" stroke-width="0.220595" stroke-miterlimit="10"/>
<path d="M279.978 56.0764L291.78 48.2087H299.649L287.847 56.0764H279.978Z" stroke="#434D48" stroke-width="0.220595" stroke-miterlimit="10"/>
<path d="M319.318 56.0764L307.517 48.2087H299.648L311.45 56.0764H319.318Z" stroke="#434D48" stroke-width="0.220595" stroke-miterlimit="10"/>
<path d="M319.318 56.0764L331.12 48.2087H338.989L327.187 56.0764H319.318Z" stroke="#434D48" stroke-width="0.220595" stroke-miterlimit="10"/>
<path d="M358.659 56.0764L370.461 48.2087H378.33L366.528 56.0764H358.659Z" stroke="#434D48" stroke-width="0.220595" stroke-miterlimit="10"/>
<path d="M358.658 56.0764L346.856 48.2087H338.987L350.789 56.0764H358.658Z" stroke="#434D48" stroke-width="0.220595" stroke-miterlimit="10"/>
<path d="M122.616 56.0764V48.2087" stroke="#434D48" stroke-width="0.882381" stroke-miterlimit="10"/>
<path d="M102.946 56.0764V48.2087" stroke="#434D48" stroke-width="0.882381" stroke-miterlimit="10"/>
<path d="M83.275 56.0764V48.2087" stroke="#434D48" stroke-width="0.882381" stroke-miterlimit="10"/>
<path d="M142.285 56.0764V48.2087" stroke="#434D48" stroke-width="0.882381" stroke-miterlimit="10"/>
<path d="M161.956 56.0764V48.2087" stroke="#434D48" stroke-width="0.882381" stroke-miterlimit="10"/>
<path d="M181.626 56.0764V48.2087" stroke="#434D48" stroke-width="0.882381" stroke-miterlimit="10"/>
<path d="M201.297 56.0764V48.2087" stroke="#434D48" stroke-width="0.882381" stroke-miterlimit="10"/>
<path d="M220.967 56.0764V48.2087" stroke="#434D48" stroke-width="0.882381" stroke-miterlimit="10"/>
<path d="M240.638 56.0764V48.2087" stroke="#434D48" stroke-width="0.882381" stroke-miterlimit="10"/>
<path d="M260.308 56.0764V48.2087" stroke="#434D48" stroke-width="0.882381" stroke-miterlimit="10"/>
<path d="M279.978 56.0764V48.2087" stroke="#434D48" stroke-width="0.882381" stroke-miterlimit="10"/>
<path d="M299.648 56.0764V48.2087" stroke="#434D48" stroke-width="0.882381" stroke-miterlimit="10"/>
<path d="M319.318 56.0764V48.2087" stroke="#434D48" stroke-width="0.882381" stroke-miterlimit="10"/>
<path d="M338.989 56.0764V48.2087" stroke="#434D48" stroke-width="0.882381" stroke-miterlimit="10"/>
<path d="M358.659 56.0764V48.2087" stroke="#434D48" stroke-width="0.882381" stroke-miterlimit="10"/>
<path d="M378.33 56.0764V48.2087" stroke="#434D48" stroke-width="0.882381" stroke-miterlimit="10"/>
<path d="M342.923 63.9448C342.902 66.0178 342.064 67.9987 340.591 69.4571C339.117 70.9155 337.128 71.7336 335.055 71.7336C332.982 71.7336 330.993 70.9155 329.519 69.4571C328.046 67.9987 327.208 66.0178 327.187 63.9448H342.923Z" stroke="#434D48" stroke-width="0.882381" stroke-miterlimit="10"/>
<path d="M328.242 67.8796H341.867" stroke="#434D48" stroke-width="0.220595" stroke-miterlimit="10"/>
<path d="M335.055 71.8125V91.4829L272.11 103.285" stroke="#434D48" stroke-width="0.224125" stroke-miterlimit="10"/>
<path d="M319.318 103.285L335.055 91.4834L397.999 103.285" stroke="#434D48" stroke-width="0.224125" stroke-miterlimit="10"/>
<path d="M405.869 103.285H260.308V142.626H405.869V103.285Z" stroke="#434D48" stroke-width="0.882381" stroke-miterlimit="10"/>
<path d="M401.934 142.626H264.242V146.56H401.934V142.626Z" stroke="#434D48" stroke-width="0.882381" stroke-miterlimit="10"/>
<path d="M260.308 130.823H405.869" stroke="#434D48" stroke-width="0.882381" stroke-miterlimit="10"/>
<path d="M276.044 142.626V103.285" stroke="#434D48" stroke-width="0.220595" stroke-miterlimit="10"/>
<path d="M283.912 142.626V103.285" stroke="#434D48" stroke-width="0.220595" stroke-miterlimit="10"/>
<path d="M291.78 142.626V103.285" stroke="#434D48" stroke-width="0.220595" stroke-miterlimit="10"/>
<path d="M299.648 142.626V103.285" stroke="#434D48" stroke-width="0.220595" stroke-miterlimit="10"/>
<path d="M279.978 142.626V103.285" stroke="#434D48" stroke-width="0.220595" stroke-miterlimit="10"/>
<path d="M287.846 142.626V103.285" stroke="#434D48" stroke-width="0.220595" stroke-miterlimit="10"/>
<path d="M268.176 142.626V103.285" stroke="#434D48" stroke-width="0.220595" stroke-miterlimit="10"/>
<path d="M272.11 142.626V103.285" stroke="#434D48" stroke-width="0.220595" stroke-miterlimit="10"/>
<path d="M295.714 142.626V103.285" stroke="#434D48" stroke-width="0.220595" stroke-miterlimit="10"/>
<path d="M307.516 142.626V103.285" stroke="#434D48" stroke-width="0.220595" stroke-miterlimit="10"/>
<path d="M315.384 142.626V103.285" stroke="#434D48" stroke-width="0.220595" stroke-miterlimit="10"/>
<path d="M323.253 142.626V103.285" stroke="#434D48" stroke-width="0.220595" stroke-miterlimit="10"/>
<path d="M331.12 142.626V103.285" stroke="#434D48" stroke-width="0.220595" stroke-miterlimit="10"/>
<path d="M303.582 142.626V103.285" stroke="#434D48" stroke-width="0.220595" stroke-miterlimit="10"/>
<path d="M311.451 142.626V103.285" stroke="#434D48" stroke-width="0.220595" stroke-miterlimit="10"/>
<path d="M319.318 142.626V103.285" stroke="#434D48" stroke-width="0.220595" stroke-miterlimit="10"/>
<path d="M327.187 142.626V103.285" stroke="#434D48" stroke-width="0.220595" stroke-miterlimit="10"/>
<path d="M335.055 142.626V103.285" stroke="#434D48" stroke-width="0.220595" stroke-miterlimit="10"/>
<path d="M342.923 142.626V103.285" stroke="#434D48" stroke-width="0.220595" stroke-miterlimit="10"/>
<path d="M338.989 142.626V103.285" stroke="#434D48" stroke-width="0.220595" stroke-miterlimit="10"/>
<path d="M350.791 142.626V103.285" stroke="#434D48" stroke-width="0.220595" stroke-miterlimit="10"/>
<path d="M358.659 142.626V103.285" stroke="#434D48" stroke-width="0.220595" stroke-miterlimit="10"/>
<path d="M366.527 142.626V103.285" stroke="#434D48" stroke-width="0.220595" stroke-miterlimit="10"/>
<path d="M374.395 142.626V103.285" stroke="#434D48" stroke-width="0.220595" stroke-miterlimit="10"/>
<path d="M346.857 142.626V103.285" stroke="#434D48" stroke-width="0.220595" stroke-miterlimit="10"/>
<path d="M354.725 142.626V103.285" stroke="#434D48" stroke-width="0.220595" stroke-miterlimit="10"/>
<path d="M362.593 142.626V103.285" stroke="#434D48" stroke-width="0.220595" stroke-miterlimit="10"/>
<path d="M370.461 142.626V103.285" stroke="#434D48" stroke-width="0.220595" stroke-miterlimit="10"/>
<path d="M382.264 142.626V103.285" stroke="#434D48" stroke-width="0.220595" stroke-miterlimit="10"/>
<path d="M390.131 142.626V103.285" stroke="#434D48" stroke-width="0.220595" stroke-miterlimit="10"/>
<path d="M398 142.626V103.285" stroke="#434D48" stroke-width="0.220595" stroke-miterlimit="10"/>
<path d="M378.33 142.626V103.285" stroke="#434D48" stroke-width="0.220595" stroke-miterlimit="10"/>
<path d="M386.197 142.626V103.285" stroke="#434D48" stroke-width="0.220595" stroke-miterlimit="10"/>
<path d="M394.066 142.626V103.285" stroke="#434D48" stroke-width="0.220595" stroke-miterlimit="10"/>
<path d="M335.055 91.4834L350.791 103.285" stroke="#434D48" stroke-width="0.220595" stroke-miterlimit="10"/>
<path d="M156.055 103.285H93.1102V107.219H156.055V103.285Z" stroke="#434D48" stroke-width="0.882381" stroke-miterlimit="10"/>
<path d="M148.187 71.8125H100.978V103.285H148.187V71.8125Z" stroke="#434D48" stroke-width="0.882381" stroke-miterlimit="10"/>
<path d="M189.495 4.93481L140.319 60.011L106.879 103.286V130.824" stroke="#434D48" stroke-width="0.220595" stroke-miterlimit="10"/>
<path d="M140.319 115.088V103.286L106.88 60.011L189.493 4.93481" stroke="#434D48" stroke-width="0.220595" stroke-miterlimit="10"/>
<path d="M100.978 103.286H97.0437L85.2418 60.0117H89.1761L100.978 103.286Z" stroke="#434D48" stroke-width="0.882381" stroke-miterlimit="10"/>
<path d="M152.122 103.286H148.184L161.954 60.0117H165.887L152.122 103.286Z" stroke="#434D48" stroke-width="0.882381" stroke-miterlimit="10"/>
<path d="M193.428 4.93481H189.494V44.2748H193.428V4.93481Z" stroke="#434D48" stroke-width="0.882381" stroke-miterlimit="10"/>
<path d="M232.77 44.2716H228.272L213.099 20.4253L210.85 16.8928L203.241 4.9292H207.732L213.099 13.3627L215.347 16.8896L232.77 44.2716Z" stroke="#434D48" stroke-width="0.882381" stroke-miterlimit="10"/>
<path d="M213.1 20.43L197.926 44.2763H193.429L210.851 16.8975L213.1 20.43Z" stroke="#434D48" stroke-width="0.882381" stroke-miterlimit="10"/>
<path d="M213.099 1H185.561V4.93424H213.099V1Z" stroke="#434D48" stroke-width="0.882381" stroke-miterlimit="10"/>
<path d="M358.657 44.2747L207.733 4.93628L315.385 44.2747" stroke="#434D48" stroke-width="0.220595" stroke-miterlimit="10"/>
<path d="M173.759 355.065H40V359H173.759V355.065Z" stroke="#434D48" stroke-width="0.882381" stroke-miterlimit="10"/>
<path d="M417.67 193.769H362.593V197.703H417.67V193.769Z" stroke="#434D48" stroke-width="0.882381" stroke-miterlimit="10"/>
<path d="M417.67 248.846H362.593V252.78H417.67V248.846Z" stroke="#434D48" stroke-width="0.882381" stroke-miterlimit="10"/>
<path d="M386.197 205.571H370.461V237.043H386.197V205.571Z" stroke="#434D48" stroke-width="0.882381" stroke-miterlimit="10"/>
<path d="M386.197 237.044H370.461V241.105H386.197V237.044Z" stroke="#434D48" stroke-width="0.882381" stroke-miterlimit="10"/>
<path d="M386.197 239.138H370.461" stroke="#434D48" stroke-width="0.220595" stroke-miterlimit="10"/>
<path d="M378.33 205.571V237.043" stroke="#434D48" stroke-width="0.220595" stroke-miterlimit="10"/>
<path d="M409.802 205.508H394.066V236.98H409.802V205.508Z" stroke="#434D48" stroke-width="0.882381" stroke-miterlimit="10"/>
<path d="M409.801 236.98H394.065V241.041H409.801V236.98Z" stroke="#434D48" stroke-width="0.882381" stroke-miterlimit="10"/>
<path d="M409.802 239.075H394.066" stroke="#434D48" stroke-width="0.220595" stroke-miterlimit="10"/>
<path d="M401.933 205.508V236.98" stroke="#434D48" stroke-width="0.220595" stroke-miterlimit="10"/>
<path d="M417.672 170.165L362.595 181.967V185.901L417.672 174.099V170.165Z" stroke="#434D48" stroke-width="0.882381" stroke-miterlimit="10"/>
<path d="M362.593 193.769H307.516V197.703H362.593V193.769Z" stroke="#434D48" stroke-width="0.882381" stroke-miterlimit="10"/>
<path d="M362.593 248.846H307.516V252.78H362.593V248.846Z" stroke="#434D48" stroke-width="0.882381" stroke-miterlimit="10"/>
<path d="M331.12 205.571H315.384V237.043H331.12V205.571Z" stroke="#434D48" stroke-width="0.882381" stroke-miterlimit="10"/>
<path d="M331.12 237.044H315.384V241.105H331.12V237.044Z" stroke="#434D48" stroke-width="0.882381" stroke-miterlimit="10"/>
<path d="M331.12 239.138H315.384" stroke="#434D48" stroke-width="0.220595" stroke-miterlimit="10"/>
<path d="M323.253 205.571V237.043" stroke="#434D48" stroke-width="0.220595" stroke-miterlimit="10"/>
<path d="M354.725 205.508H338.989V236.98H354.725V205.508Z" stroke="#434D48" stroke-width="0.882381" stroke-miterlimit="10"/>
<path d="M354.725 236.98H338.989V241.041H354.725V236.98Z" stroke="#434D48" stroke-width="0.882381" stroke-miterlimit="10"/>
<path d="M354.725 239.075H338.989" stroke="#434D48" stroke-width="0.220595" stroke-miterlimit="10"/>
<path d="M346.857 205.508V236.98" stroke="#434D48" stroke-width="0.220595" stroke-miterlimit="10"/>
<path d="M362.593 170.165L307.516 181.967V185.901L362.593 174.099V170.165Z" stroke="#434D48" stroke-width="0.882381" stroke-miterlimit="10"/>
<path d="M362.593 355.064H252.439V185.9L307.516 174.098V185.9L362.593 174.098L362.593 355.064Z" stroke="#434D48" stroke-width="0.882381" stroke-miterlimit="10"/>
<path d="M307.516 193.769H252.439V197.703H307.516V193.769Z" stroke="#434D48" stroke-width="0.882381" stroke-miterlimit="10"/>
<path d="M307.516 248.846H252.439V252.78H307.516V248.846Z" stroke="#434D48" stroke-width="0.882381" stroke-miterlimit="10"/>
<path d="M276.044 205.571H260.308V237.043H276.044V205.571Z" stroke="#434D48" stroke-width="0.882381" stroke-miterlimit="10"/>
<path d="M276.044 237.044H260.308V241.105H276.044V237.044Z" stroke="#434D48" stroke-width="0.882381" stroke-miterlimit="10"/>
<path d="M276.044 239.138H260.308" stroke="#434D48" stroke-width="0.220595" stroke-miterlimit="10"/>
<path d="M268.176 205.571V237.043" stroke="#434D48" stroke-width="0.220595" stroke-miterlimit="10"/>
<path d="M299.648 205.508H283.912V236.98H299.648V205.508Z" stroke="#434D48" stroke-width="0.882381" stroke-miterlimit="10"/>
<path d="M299.648 236.98H283.912V241.041H299.648V236.98Z" stroke="#434D48" stroke-width="0.882381" stroke-miterlimit="10"/>
<path d="M299.648 239.075H283.912" stroke="#434D48" stroke-width="0.220595" stroke-miterlimit="10"/>
<path d="M291.78 205.508V236.98" stroke="#434D48" stroke-width="0.220595" stroke-miterlimit="10"/>
<path d="M307.517 170.165L252.44 181.967V185.901L307.517 174.099V170.165Z" stroke="#434D48" stroke-width="0.882381" stroke-miterlimit="10"/>
<path d="M362.593 197.703V248.845" stroke="#434D48" stroke-width="0.882381" stroke-miterlimit="10"/>
<path d="M307.516 197.703V248.845" stroke="#434D48" stroke-width="0.882381" stroke-miterlimit="10"/>
<path d="M409.802 193.769V175.785" stroke="#434D48" stroke-width="0.220595" stroke-miterlimit="10"/>
<path d="M401.933 193.769V177.471" stroke="#434D48" stroke-width="0.220595" stroke-miterlimit="10"/>
<path d="M394.066 193.768V179.156" stroke="#434D48" stroke-width="0.220595" stroke-miterlimit="10"/>
<path d="M386.197 193.769V180.842" stroke="#434D48" stroke-width="0.220595" stroke-miterlimit="10"/>
<path d="M378.33 193.769V182.529" stroke="#434D48" stroke-width="0.220595" stroke-miterlimit="10"/>
<path d="M370.461 193.768V184.176" stroke="#434D48" stroke-width="0.220595" stroke-miterlimit="10"/>
<path d="M354.725 193.769V175.785" stroke="#434D48" stroke-width="0.220595" stroke-miterlimit="10"/>
<path d="M346.857 193.769V177.471" stroke="#434D48" stroke-width="0.220595" stroke-miterlimit="10"/>
<path d="M338.989 193.768V179.156" stroke="#434D48" stroke-width="0.220595" stroke-miterlimit="10"/>
<path d="M331.12 193.769V180.842" stroke="#434D48" stroke-width="0.220595" stroke-miterlimit="10"/>
<path d="M323.253 193.769V182.529" stroke="#434D48" stroke-width="0.220595" stroke-miterlimit="10"/>
<path d="M315.384 193.768V184.176" stroke="#434D48" stroke-width="0.220595" stroke-miterlimit="10"/>
<path d="M299.648 193.769V175.785" stroke="#434D48" stroke-width="0.220595" stroke-miterlimit="10"/>
<path d="M291.78 193.769V177.471" stroke="#434D48" stroke-width="0.220595" stroke-miterlimit="10"/>
<path d="M283.912 193.768V179.156" stroke="#434D48" stroke-width="0.220595" stroke-miterlimit="10"/>
<path d="M276.044 193.769V180.842" stroke="#434D48" stroke-width="0.220595" stroke-miterlimit="10"/>
<path d="M268.176 193.769V182.529" stroke="#434D48" stroke-width="0.220595" stroke-miterlimit="10"/>
<path d="M260.308 193.768V184.176" stroke="#434D48" stroke-width="0.220595" stroke-miterlimit="10"/>
<path d="M362.593 193.769V185.901" stroke="#434D48" stroke-width="0.882381" stroke-miterlimit="10"/>
<path d="M307.516 193.769V185.901" stroke="#434D48" stroke-width="0.882381" stroke-miterlimit="10"/>
<path d="M354.725 268.516H260.308V355.065H354.725V268.516Z" stroke="#434D48" stroke-width="0.882381" stroke-miterlimit="10"/>
<path d="M350.791 272.45H264.242V355.065H350.791V272.45Z" stroke="#434D48" stroke-width="0.220595" stroke-miterlimit="10"/>
<path d="M307.516 272.451V354.991" stroke="#434D48" stroke-width="0.220595" stroke-miterlimit="10"/>
<path d="M409.802 268.515H370.461V323.592H409.802V268.515Z" stroke="#434D48" stroke-width="0.882381" stroke-miterlimit="10"/>
<path d="M405.868 272.45H374.395V319.658H405.868V272.45Z" stroke="#434D48" stroke-width="0.220595" stroke-miterlimit="10"/>
<path d="M390.131 272.451V319.659" stroke="#434D48" stroke-width="0.220595" stroke-miterlimit="10"/>
<path d="M374.395 284.253H405.868" stroke="#434D48" stroke-width="0.220595" stroke-miterlimit="10"/>
<path d="M374.395 296.054H405.868" stroke="#434D48" stroke-width="0.220595" stroke-miterlimit="10"/>
<path d="M374.395 307.856H405.868" stroke="#434D48" stroke-width="0.220595" stroke-miterlimit="10"/>
<path d="M417.67 339.33H354.725" stroke="#434D48" stroke-width="0.882381" stroke-miterlimit="10"/>
<path d="M409.802 355.066V339.33" stroke="#434D48" stroke-width="0.220595" stroke-miterlimit="10"/>
<path d="M401.933 355.066V339.33" stroke="#434D48" stroke-width="0.220595" stroke-miterlimit="10"/>
<path d="M394.066 355.066V339.33" stroke="#434D48" stroke-width="0.220595" stroke-miterlimit="10"/>
<path d="M386.197 355.066V339.33" stroke="#434D48" stroke-width="0.220595" stroke-miterlimit="10"/>
<path d="M378.33 355.066V339.33" stroke="#434D48" stroke-width="0.220595" stroke-miterlimit="10"/>
<path d="M370.461 355.066V339.33" stroke="#434D48" stroke-width="0.220595" stroke-miterlimit="10"/>
<path d="M260.307 339.33H252.439" stroke="#434D48" stroke-width="0.882381" stroke-miterlimit="10"/>
<path d="M362.593 355.064H417.672V174.098L362.595 185.9L362.593 355.064Z" stroke="#434D48" stroke-width="0.882381" stroke-miterlimit="10"/>
<path d="M433.406 32.4714H417.67V355.064H433.406V32.4714Z" stroke="#434D48" stroke-width="0.882381" stroke-miterlimit="10"/>
<path d="M433.406 299.989H417.67V355.065H433.406V299.989Z" stroke="#434D48" stroke-width="0.882381" stroke-miterlimit="10"/>
<path d="M433.406 303.923H417.67" stroke="#434D48" stroke-width="0.882381" stroke-miterlimit="10"/>
<path d="M433.406 307.856H417.67" stroke="#434D48" stroke-width="0.220595" stroke-miterlimit="10"/>
<path d="M429.472 48.2087H427.505V71.8126H429.472V48.2087Z" stroke="#434D48" stroke-width="0.191035" stroke-miterlimit="10"/>
<path d="M423.571 48.2087H421.604V71.8126H423.571V48.2087Z" stroke="#434D48" stroke-width="0.191035" stroke-miterlimit="10"/>
<path d="M433.406 32.4714H417.67V36.4057H433.406V32.4714Z" stroke="#434D48" stroke-width="0.882381" stroke-miterlimit="10"/>
<path d="M433.406 36.406H417.67V40.3402H433.406V36.406Z" stroke="#434D48" stroke-width="0.191035" stroke-miterlimit="10"/>
<path d="M437.341 355.065H248.506V359H437.341V355.065Z" stroke="#434D48" stroke-width="0.882381" stroke-miterlimit="10"/>
<path d="M299.648 347.197H303.582V280.318H299.648" stroke="#434D48" stroke-width="0.220595" stroke-miterlimit="10"/>
<path d="M315.384 347.197H311.45V280.318H315.384" stroke="#434D48" stroke-width="0.220595" stroke-miterlimit="10"/>
<path d="M51.8013 158.363L55.7379 156.956V158.363H51.8013Z" stroke="#434D48" stroke-width="0.882381" stroke-miterlimit="10"/>
<path d="M161.954 158.362H158.023V156.96L161.954 158.362Z" stroke="#434D48" stroke-width="0.882381" stroke-miterlimit="10"/>
<path d="M165.89 158.362H47.8685V162.296H165.89V158.362Z" stroke="#434D48" stroke-width="0.882381" stroke-miterlimit="10"/>
<path d="M173.759 213.439H40V217.374H173.759V213.439Z" stroke="#434D48" stroke-width="0.882381" stroke-miterlimit="10"/>
<path d="M169.824 217.373H43.9342V354.99H169.824V217.373Z" stroke="#434D48" stroke-width="0.882381" stroke-miterlimit="10"/>
<path d="M161.957 162.296H51.8029V213.439H161.957V162.296Z" stroke="#434D48" stroke-width="0.898705" stroke-miterlimit="10"/>
<path d="M75.4074 170.165H59.6713V185.901H75.4074V170.165Z" stroke="#434D48" stroke-width="0.882381" stroke-miterlimit="10"/>
<path d="M67.5389 170.165V185.901" stroke="#434D48" stroke-width="0.220595" stroke-miterlimit="10"/>
<path d="M75.4065 178.032H59.6703" stroke="#434D48" stroke-width="0.220595" stroke-miterlimit="10"/>
<path d="M95.077 170.165H79.3408V185.901H95.077V170.165Z" stroke="#434D48" stroke-width="0.882381" stroke-miterlimit="10"/>
<path d="M87.2092 170.165V185.901" stroke="#434D48" stroke-width="0.220595" stroke-miterlimit="10"/>
<path d="M95.077 178.032H79.3408" stroke="#434D48" stroke-width="0.220595" stroke-miterlimit="10"/>
<path d="M134.418 170.165H118.682V185.901H134.418V170.165Z" stroke="#434D48" stroke-width="0.882381" stroke-miterlimit="10"/>
<path d="M126.549 170.165V185.901" stroke="#434D48" stroke-width="0.220595" stroke-miterlimit="10"/>
<path d="M134.418 178.032H118.682" stroke="#434D48" stroke-width="0.220595" stroke-miterlimit="10"/>
<path d="M154.088 170.165H138.352V185.901H154.088V170.165Z" stroke="#434D48" stroke-width="0.882381" stroke-miterlimit="10"/>
<path d="M146.22 170.165V185.901" stroke="#434D48" stroke-width="0.220595" stroke-miterlimit="10"/>
<path d="M154.088 178.032H138.352" stroke="#434D48" stroke-width="0.220595" stroke-miterlimit="10"/>
<path d="M75.4074 185.901H59.6713V189.835H75.4074V185.901Z" stroke="#434D48" stroke-width="0.882381" stroke-miterlimit="10"/>
<path d="M59.6703 187.867H75.4065" stroke="#434D48" stroke-width="0.220595" stroke-miterlimit="10"/>
<path d="M79.3409 311.791H55.7371V315.725H79.3409V311.791Z" stroke="#434D48" stroke-width="0.882381" stroke-miterlimit="10"/>
<path d="M55.7371 313.758H79.3409" stroke="#434D48" stroke-width="0.220595" stroke-miterlimit="10"/>
<path d="M95.077 185.901H79.3408V189.835H95.077V185.901Z" stroke="#434D48" stroke-width="0.882381" stroke-miterlimit="10"/>
<path d="M79.3408 187.867H95.077" stroke="#434D48" stroke-width="0.220595" stroke-miterlimit="10"/>
<path d="M114.747 170.165H99.0113V185.901H114.747V170.165Z" stroke="#434D48" stroke-width="0.882381" stroke-miterlimit="10"/>
<path d="M106.88 170.165V185.901" stroke="#434D48" stroke-width="0.220595" stroke-miterlimit="10"/>
<path d="M114.747 178.032H99.0113" stroke="#434D48" stroke-width="0.220595" stroke-miterlimit="10"/>
<path d="M114.747 185.901H99.0113V189.835H114.747V185.901Z" stroke="#434D48" stroke-width="0.882381" stroke-miterlimit="10"/>
<path d="M99.0113 187.867H114.747" stroke="#434D48" stroke-width="0.220595" stroke-miterlimit="10"/>
<path d="M134.418 185.901H118.682V189.835H134.418V185.901Z" stroke="#434D48" stroke-width="0.882381" stroke-miterlimit="10"/>
<path d="M118.682 187.867H134.418" stroke="#434D48" stroke-width="0.220595" stroke-miterlimit="10"/>
<path d="M154.088 185.901H138.352V189.835H154.088V185.901Z" stroke="#434D48" stroke-width="0.882381" stroke-miterlimit="10"/>
<path d="M138.352 187.867H154.088" stroke="#434D48" stroke-width="0.220595" stroke-miterlimit="10"/>
<path d="M51.8029 197.703H161.957" stroke="#434D48" stroke-width="0.882381" stroke-miterlimit="10"/>
<path d="M43.9342 323.593H169.824" stroke="#434D48" stroke-width="0.882381" stroke-miterlimit="10"/>
<path d="M51.8029 323.593V354.99" stroke="#434D48" stroke-width="0.220595" stroke-miterlimit="10"/>
<path d="M59.6703 323.593V354.99" stroke="#434D48" stroke-width="0.220595" stroke-miterlimit="10"/>
<path d="M67.5389 323.593V354.99" stroke="#434D48" stroke-width="0.220595" stroke-miterlimit="10"/>
<path d="M75.4066 323.593V354.99" stroke="#434D48" stroke-width="0.220595" stroke-miterlimit="10"/>
<path d="M83.275 323.593V354.99" stroke="#434D48" stroke-width="0.220595" stroke-miterlimit="10"/>
<path d="M91.1426 323.593V354.99" stroke="#434D48" stroke-width="0.220595" stroke-miterlimit="10"/>
<path d="M99.0113 323.593V354.99" stroke="#434D48" stroke-width="0.220595" stroke-miterlimit="10"/>
<path d="M106.88 323.593V354.99" stroke="#434D48" stroke-width="0.220595" stroke-miterlimit="10"/>
<path d="M114.747 323.593V354.99" stroke="#434D48" stroke-width="0.220595" stroke-miterlimit="10"/>
<path d="M122.616 323.593V354.99" stroke="#434D48" stroke-width="0.220595" stroke-miterlimit="10"/>
<path d="M130.483 323.593V354.99" stroke="#434D48" stroke-width="0.220595" stroke-miterlimit="10"/>
<path d="M138.352 323.593V354.99" stroke="#434D48" stroke-width="0.220595" stroke-miterlimit="10"/>
<path d="M146.22 323.593V354.99" stroke="#434D48" stroke-width="0.220595" stroke-miterlimit="10"/>
<path d="M154.088 323.593V354.99" stroke="#434D48" stroke-width="0.220595" stroke-miterlimit="10"/>
<path d="M161.956 323.593V354.99" stroke="#434D48" stroke-width="0.220595" stroke-miterlimit="10"/>
<path d="M79.3409 311.791H55.7371V237.045C55.7371 233.915 56.9805 230.913 59.1938 228.7C61.4071 226.487 64.4089 225.243 67.539 225.243C70.669 225.243 73.6709 226.487 75.8842 228.7C78.0975 230.913 79.3409 233.915 79.3409 237.045V311.791Z" stroke="#434D48" stroke-width="0.862968" stroke-miterlimit="10"/>
<path d="M75.4074 307.855H59.6713V237.044C59.6713 234.957 60.5002 232.956 61.9757 231.481C63.4511 230.005 65.4523 229.176 67.5389 229.176V229.176C69.6256 229.176 71.6268 230.005 73.1022 231.481C74.5777 232.956 75.4066 234.957 75.4066 237.044L75.4074 307.855Z" stroke="#434D48" stroke-width="0.220595" stroke-miterlimit="10"/>
<path d="M67.5389 229.176V307.857" stroke="#434D48" stroke-width="0.220595" stroke-miterlimit="10"/>
<path d="M59.6703 244.912H75.4065" stroke="#434D48" stroke-width="0.220595" stroke-miterlimit="10"/>
<path d="M59.6703 260.647H75.4065" stroke="#434D48" stroke-width="0.220595" stroke-miterlimit="10"/>
<path d="M59.6703 276.384H75.4065" stroke="#434D48" stroke-width="0.220595" stroke-miterlimit="10"/>
<path d="M99.0113 244.912H114.747" stroke="#434D48" stroke-width="0.220595" stroke-miterlimit="10"/>
<path d="M99.0113 260.647H114.747" stroke="#434D48" stroke-width="0.220595" stroke-miterlimit="10"/>
<path d="M99.0113 276.384H114.747" stroke="#434D48" stroke-width="0.220595" stroke-miterlimit="10"/>
<path d="M138.352 244.912H154.088" stroke="#434D48" stroke-width="0.220595" stroke-miterlimit="10"/>
<path d="M138.352 260.647H154.088" stroke="#434D48" stroke-width="0.220595" stroke-miterlimit="10"/>
<path d="M138.352 276.384H154.088" stroke="#434D48" stroke-width="0.220595" stroke-miterlimit="10"/>
<path d="M59.6703 292.12H75.4065" stroke="#434D48" stroke-width="0.220595" stroke-miterlimit="10"/>
<path d="M118.682 311.791H95.0779V315.725H118.682V311.791Z" stroke="#434D48" stroke-width="0.882381" stroke-miterlimit="10"/>
<path d="M95.0771 313.758H118.681" stroke="#434D48" stroke-width="0.220595" stroke-miterlimit="10"/>
<path d="M118.682 311.791H95.0779V237.045C95.0779 233.915 96.3213 230.913 98.5346 228.7C100.748 226.487 103.75 225.243 106.88 225.243C110.01 225.243 113.012 226.487 115.225 228.7C117.438 230.913 118.682 233.915 118.682 237.045V311.791Z" stroke="#434D48" stroke-width="0.862968" stroke-miterlimit="10"/>
<path d="M114.747 307.855H99.0113V237.044C99.0113 234.957 99.8402 232.956 101.316 231.481C102.791 230.005 104.792 229.176 106.879 229.176V229.176C108.966 229.176 110.967 230.005 112.442 231.481C113.918 232.956 114.747 234.957 114.747 237.044L114.747 307.855Z" stroke="#434D48" stroke-width="0.220595" stroke-miterlimit="10"/>
<path d="M106.88 229.176V307.857" stroke="#434D48" stroke-width="0.220595" stroke-miterlimit="10"/>
<path d="M99.0113 292.12H114.747" stroke="#434D48" stroke-width="0.220595" stroke-miterlimit="10"/>
<path d="M158.022 311.791H134.417V315.725H158.022V311.791Z" stroke="#434D48" stroke-width="0.882381" stroke-miterlimit="10"/>
<path d="M134.418 313.758H158.022" stroke="#434D48" stroke-width="0.220595" stroke-miterlimit="10"/>
<path d="M158.022 311.791H134.418V237.045C134.418 233.915 135.661 230.913 137.874 228.7C140.088 226.487 143.09 225.243 146.22 225.243C149.35 225.243 152.352 226.487 154.565 228.7C156.778 230.913 158.022 233.915 158.022 237.045V311.791Z" stroke="#434D48" stroke-width="0.862968" stroke-miterlimit="10"/>
<path d="M154.088 307.855H138.352V237.044C138.352 234.957 139.181 232.956 140.656 231.481C142.132 230.005 144.133 229.176 146.22 229.176V229.176C148.306 229.176 150.308 230.005 151.783 231.481C153.259 232.956 154.087 234.957 154.087 237.044L154.088 307.855Z" stroke="#434D48" stroke-width="0.220595" stroke-miterlimit="10"/>
<path d="M146.22 229.176V307.857" stroke="#434D48" stroke-width="0.220595" stroke-miterlimit="10"/>
<path d="M138.352 292.12H154.088" stroke="#434D48" stroke-width="0.220595" stroke-miterlimit="10"/>
<path d="M158.023 156.962V158.364H55.7371V156.956L99.0097 141.502L106.877 138.693L114.743 141.502L158.023 156.962Z" stroke="#434D48" stroke-width="0.882381" stroke-miterlimit="10"/>
<path d="M99.0097 134.755V141.501L55.7371 156.955V134.755H99.0097Z" stroke="#434D48" stroke-width="0.882381" stroke-miterlimit="10"/>
<path d="M158.02 134.755V156.96L114.742 141.5V134.754L158.02 134.755Z" stroke="#434D48" stroke-width="0.882381" stroke-miterlimit="10"/>
<path d="M55.7371 138.693H99.0097" stroke="#434D48" stroke-width="0.220595" stroke-miterlimit="10"/>
<path d="M114.747 138.693H158.022" stroke="#434D48" stroke-width="0.220595" stroke-miterlimit="10"/>
<path d="M63.6045 122.955H59.6703V134.755H63.6045V122.955Z" stroke="#434D48" stroke-width="0.882381" stroke-miterlimit="10"/>
<path d="M71.4732 115.087H67.5389V134.755H71.4732V115.087Z" stroke="#434D48" stroke-width="0.882381" stroke-miterlimit="10"/>
</svg>
