<svg width="525" height="394" viewBox="0 0 525 394" fill="none" xmlns="http://www.w3.org/2000/svg">
<g clip-path="url(#clip0_922_4286)">
<path d="M123.711 134.501H110.455V187.524H123.711V134.501Z" stroke="#041914" stroke-width="0.25" stroke-miterlimit="10"/>
<path d="M130.339 127.872H103.828V194.151H130.339V127.872Z" stroke="#041914" stroke-miterlimit="10"/>
<path d="M163.479 134.501H150.223V187.524H163.479V134.501Z" stroke="#041914" stroke-width="0.25" stroke-miterlimit="10"/>
<path d="M170.107 127.872H143.596V194.151H170.107V127.872Z" stroke="#041914" stroke-miterlimit="10"/>
<path d="M203.246 134.501H189.99V187.524H203.246V134.501Z" stroke="#041914" stroke-width="0.25" stroke-miterlimit="10"/>
<path d="M209.872 127.872H183.361V194.151H209.872V127.872Z" stroke="#041914" stroke-miterlimit="10"/>
<path d="M243.011 134.501H229.756V187.524H243.011V134.501Z" stroke="#041914" stroke-width="0.25" stroke-miterlimit="10"/>
<path d="M249.64 127.872H223.129V194.151H249.64V127.872Z" stroke="#041914" stroke-miterlimit="10"/>
<path d="M123.711 214.035H110.455V267.058H123.711V214.035Z" stroke="#041914" stroke-width="0.25" stroke-miterlimit="10"/>
<path d="M130.339 207.406H103.828V273.685H130.339V207.406Z" stroke="#041914" stroke-miterlimit="10"/>
<path d="M163.479 214.035H150.223V267.058H163.479V214.035Z" stroke="#041914" stroke-width="0.25" stroke-miterlimit="10"/>
<path d="M170.107 207.406H143.596V273.685H170.107V207.406Z" stroke="#041914" stroke-miterlimit="10"/>
<path d="M203.246 214.035H189.99V267.058H203.246V214.035Z" stroke="#041914" stroke-width="0.25" stroke-miterlimit="10"/>
<path d="M209.872 207.406H183.361V273.685H209.872V207.406Z" stroke="#041914" stroke-miterlimit="10"/>
<path d="M243.011 214.035H229.756V267.058H243.011V214.035Z" stroke="#041914" stroke-width="0.25" stroke-miterlimit="10"/>
<path d="M249.64 207.406H223.129V273.685H249.64V207.406Z" stroke="#041914" stroke-miterlimit="10"/>
<path d="M123.711 306.824H110.455V359.846H123.711V306.824Z" stroke="#041914" stroke-width="0.25" stroke-miterlimit="10"/>
<path d="M130.339 300.196H103.828V366.475H130.339V300.196Z" stroke="#041914" stroke-miterlimit="10"/>
<path d="M243.011 306.824H229.756V359.846H243.011V306.824Z" stroke="#041914" stroke-width="0.25" stroke-miterlimit="10"/>
<path d="M249.64 300.196H223.129V366.475H249.64V300.196Z" stroke="#041914" stroke-miterlimit="10"/>
<path d="M209.873 313.452H143.594V386.357H209.873V313.452Z" stroke="#041914" stroke-miterlimit="10"/>
<path d="M209.873 300.196H143.594V313.451H209.873V300.196Z" stroke="#041914" stroke-miterlimit="10"/>
<path d="M143.596 306.824H209.875" stroke="#041914" stroke-width="0.25" stroke-miterlimit="10"/>
<path d="M176.735 313.452V386.357" stroke="#041914" stroke-miterlimit="10"/>
<path d="M170.107 333.335V366.474" stroke="#041914" stroke-width="0.25" stroke-miterlimit="10"/>
<path d="M183.362 333.335V366.474" stroke="#041914" stroke-width="0.25" stroke-miterlimit="10"/>
<path d="M262.896 114.617H90.5721V386.357H262.896V114.617Z" stroke="#041914" stroke-miterlimit="10"/>
<path d="M90.5721 379.731H143.594" stroke="#041914" stroke-miterlimit="10"/>
<path d="M209.874 379.731H262.896" stroke="#041914" stroke-miterlimit="10"/>
<path d="M256.745 386.358H83.9443V392.986H256.745V386.358Z" stroke="#041914" stroke-miterlimit="10"/>
<path d="M269.524 107.99H83.9443V114.618H269.524V107.99Z" stroke="#041914" stroke-miterlimit="10"/>
<path d="M262.896 54.9675H90.5721V107.99H262.896V54.9675Z" stroke="#041914" stroke-miterlimit="10"/>
<path d="M269.524 48.3391H83.9443V54.9669H269.524V48.3391Z" stroke="#041914" stroke-miterlimit="10"/>
<path d="M262.896 41.7117H90.5721V48.3395H262.896V41.7117Z" stroke="#041914" stroke-miterlimit="10"/>
<path d="M136.967 15.2004H130.339V41.7116H136.967V15.2004Z" stroke="#041914" stroke-miterlimit="10"/>
<path d="M110.456 28.4553H103.828V41.7109H110.456V28.4553Z" stroke="#041914" stroke-miterlimit="10"/>
<path d="M90.5721 286.941H262.896" stroke="#041914" stroke-miterlimit="10"/>
<path d="M249.64 68.2224H223.129V94.7335H249.64V68.2224Z" stroke="#041914" stroke-miterlimit="10"/>
<path d="M236.385 68.2224V94.7335" stroke="#041914" stroke-width="0.25" stroke-miterlimit="10"/>
<path d="M249.64 81.478H223.129" stroke="#041914" stroke-width="0.25" stroke-miterlimit="10"/>
<path d="M209.872 68.2224H183.361V94.7335H209.872V68.2224Z" stroke="#041914" stroke-miterlimit="10"/>
<path d="M196.618 68.2224V94.7335" stroke="#041914" stroke-width="0.25" stroke-miterlimit="10"/>
<path d="M209.874 81.478H183.362" stroke="#041914" stroke-width="0.25" stroke-miterlimit="10"/>
<path d="M170.107 68.2224H143.596V94.7335H170.107V68.2224Z" stroke="#041914" stroke-miterlimit="10"/>
<path d="M156.85 68.2224V94.7335" stroke="#041914" stroke-width="0.25" stroke-miterlimit="10"/>
<path d="M170.107 81.478H143.596" stroke="#041914" stroke-width="0.25" stroke-miterlimit="10"/>
<path d="M130.339 68.2224H103.828V94.7335H130.339V68.2224Z" stroke="#041914" stroke-miterlimit="10"/>
<path d="M117.083 68.2224V94.7335" stroke="#041914" stroke-width="0.25" stroke-miterlimit="10"/>
<path d="M130.339 81.478H103.828" stroke="#041914" stroke-width="0.25" stroke-miterlimit="10"/>
</g>
<g clip-path="url(#clip1_922_4286)">
<path d="M296.011 134.501H282.756V187.524H296.011V134.501Z" stroke="#041914" stroke-width="0.25" stroke-miterlimit="10"/>
<path d="M302.639 127.872H276.128V194.151H302.639V127.872Z" stroke="#041914" stroke-miterlimit="10"/>
<path d="M335.779 134.501H322.524V187.524H335.779V134.501Z" stroke="#041914" stroke-width="0.25" stroke-miterlimit="10"/>
<path d="M342.407 127.872H315.896V194.151H342.407V127.872Z" stroke="#041914" stroke-miterlimit="10"/>
<path d="M375.546 134.501H362.29V187.524H375.546V134.501Z" stroke="#041914" stroke-width="0.25" stroke-miterlimit="10"/>
<path d="M382.172 127.872H355.661V194.151H382.172V127.872Z" stroke="#041914" stroke-miterlimit="10"/>
<path d="M415.311 134.501H402.056V187.524H415.311V134.501Z" stroke="#041914" stroke-width="0.25" stroke-miterlimit="10"/>
<path d="M421.94 127.872H395.429V194.151H421.94V127.872Z" stroke="#041914" stroke-miterlimit="10"/>
<path d="M296.011 214.035H282.756V267.058H296.011V214.035Z" stroke="#041914" stroke-width="0.25" stroke-miterlimit="10"/>
<path d="M302.639 207.406H276.128V273.685H302.639V207.406Z" stroke="#041914" stroke-miterlimit="10"/>
<path d="M335.779 214.035H322.524V267.058H335.779V214.035Z" stroke="#041914" stroke-width="0.25" stroke-miterlimit="10"/>
<path d="M342.407 207.406H315.896V273.685H342.407V207.406Z" stroke="#041914" stroke-miterlimit="10"/>
<path d="M375.546 214.035H362.29V267.058H375.546V214.035Z" stroke="#041914" stroke-width="0.25" stroke-miterlimit="10"/>
<path d="M382.172 207.406H355.661V273.685H382.172V207.406Z" stroke="#041914" stroke-miterlimit="10"/>
<path d="M415.311 214.035H402.056V267.058H415.311V214.035Z" stroke="#041914" stroke-width="0.25" stroke-miterlimit="10"/>
<path d="M421.94 207.406H395.429V273.685H421.94V207.406Z" stroke="#041914" stroke-miterlimit="10"/>
<path d="M296.011 306.824H282.756V359.846H296.011V306.824Z" stroke="#041914" stroke-width="0.25" stroke-miterlimit="10"/>
<path d="M302.639 300.196H276.128V366.475H302.639V300.196Z" stroke="#041914" stroke-miterlimit="10"/>
<path d="M415.311 306.824H402.056V359.846H415.311V306.824Z" stroke="#041914" stroke-width="0.25" stroke-miterlimit="10"/>
<path d="M421.94 300.196H395.429V366.475H421.94V300.196Z" stroke="#041914" stroke-miterlimit="10"/>
<path d="M382.174 313.452H315.895V386.357H382.174V313.452Z" stroke="#041914" stroke-miterlimit="10"/>
<path d="M382.174 300.196H315.895V313.451H382.174V300.196Z" stroke="#041914" stroke-miterlimit="10"/>
<path d="M315.896 306.824H382.175" stroke="#041914" stroke-width="0.25" stroke-miterlimit="10"/>
<path d="M349.035 313.452V386.357" stroke="#041914" stroke-miterlimit="10"/>
<path d="M342.407 333.335V366.474" stroke="#041914" stroke-width="0.25" stroke-miterlimit="10"/>
<path d="M355.662 333.335V366.474" stroke="#041914" stroke-width="0.25" stroke-miterlimit="10"/>
<path d="M435.196 114.617H262.872V386.357H435.196V114.617Z" stroke="#041914" stroke-miterlimit="10"/>
<path d="M262.872 379.731H315.895" stroke="#041914" stroke-miterlimit="10"/>
<path d="M382.174 379.731H435.196" stroke="#041914" stroke-miterlimit="10"/>
<path d="M441.824 386.358H256.245V392.986H441.824V386.358Z" stroke="#041914" stroke-miterlimit="10"/>
<path d="M441.824 107.99H256.245V114.618H441.824V107.99Z" stroke="#041914" stroke-miterlimit="10"/>
<path d="M435.196 54.9675H262.872V107.99H435.196V54.9675Z" stroke="#041914" stroke-miterlimit="10"/>
<path d="M441.824 48.3391H256.245V54.9669H441.824V48.3391Z" stroke="#041914" stroke-miterlimit="10"/>
<path d="M435.196 41.7117H262.872V48.3395H435.196V41.7117Z" stroke="#041914" stroke-miterlimit="10"/>
<path d="M309.267 15.2004H302.639V41.7116H309.267V15.2004Z" stroke="#041914" stroke-miterlimit="10"/>
<path d="M282.756 28.4553H276.128V41.7109H282.756V28.4553Z" stroke="#041914" stroke-miterlimit="10"/>
<path d="M402.057 41.7115H349.033L362.29 1.94482H415.313L402.057 41.7115Z" stroke="#041914" stroke-miterlimit="10"/>
<path d="M397.638 35.0849H357.871L366.708 8.57373H406.475L397.638 35.0849Z" stroke="#041914" stroke-width="0.25" stroke-miterlimit="10"/>
<path d="M362.29 21.8279H402.057" stroke="#041914" stroke-width="0.25" stroke-miterlimit="10"/>
<path d="M379.964 8.57227L371.128 35.0834" stroke="#041914" stroke-width="0.25" stroke-miterlimit="10"/>
<path d="M393.219 8.57227L384.383 35.0834" stroke="#041914" stroke-width="0.25" stroke-miterlimit="10"/>
<path d="M415.313 21.8279L421.94 41.7048H408.685L415.313 21.8279Z" stroke="#041914" stroke-miterlimit="10"/>
<path d="M402.056 41.7115H408.683L421.934 1.94482H415.307L402.056 41.7115Z" stroke="#041914" stroke-miterlimit="10"/>
<path d="M262.872 286.941H435.196" stroke="#041914" stroke-miterlimit="10"/>
<path d="M421.94 68.2224H395.429V94.7335H421.94V68.2224Z" stroke="#041914" stroke-miterlimit="10"/>
<path d="M408.685 68.2224V94.7335" stroke="#041914" stroke-width="0.25" stroke-miterlimit="10"/>
<path d="M421.94 81.478H395.429" stroke="#041914" stroke-width="0.25" stroke-miterlimit="10"/>
<path d="M382.172 68.2224H355.661V94.7335H382.172V68.2224Z" stroke="#041914" stroke-miterlimit="10"/>
<path d="M368.918 68.2224V94.7335" stroke="#041914" stroke-width="0.25" stroke-miterlimit="10"/>
<path d="M382.174 81.478H355.662" stroke="#041914" stroke-width="0.25" stroke-miterlimit="10"/>
<path d="M342.407 68.2224H315.896V94.7335H342.407V68.2224Z" stroke="#041914" stroke-miterlimit="10"/>
<path d="M329.15 68.2224V94.7335" stroke="#041914" stroke-width="0.25" stroke-miterlimit="10"/>
<path d="M342.407 81.478H315.896" stroke="#041914" stroke-width="0.25" stroke-miterlimit="10"/>
<path d="M302.639 68.2224H276.128V94.7335H302.639V68.2224Z" stroke="#041914" stroke-miterlimit="10"/>
<path d="M289.383 68.2224V94.7335" stroke="#041914" stroke-width="0.25" stroke-miterlimit="10"/>
<path d="M302.639 81.478H276.128" stroke="#041914" stroke-width="0.25" stroke-miterlimit="10"/>
</g>
<defs>
<clipPath id="clip0_922_4286">
<rect width="187.468" height="392.931" fill="white" transform="translate(83 1)"/>
</clipPath>
<clipPath id="clip1_922_4286">
<rect width="187.468" height="392.931" fill="white" transform="translate(255.3 1)"/>
</clipPath>
</defs>
</svg>
